<svg viewBox="0 0 480 480" xmlns="http://www.w3.org/2000/svg" aria-hidden="true"><g transform="translate(0.000000,480.000000) scale(0.100000,-0.100000)" fill="currentColor"><path d="M3405 4526 c-129 -30 -219 -68 -318 -134 -56 -38 -389 -363 -814 -796 -226 -229 -228 -233 -169 -292 26 -26 43 -34 69 -34 31 0 43 9 110 83 41 45 166 172 277 282 112 110 239 238 284 284 302 314 347 350 521 409 73 24 93 26 225 26 128 0 154 -3 220 -26 239 -82 462 -310 557 -572 23 -63 26 -85 26 -206 -1 -125 -3 -142 -32 -224 -61 -174 -72 -188 -472 -591 -201 -203 -418 -422 -480 -486 -185 -187 -270 -246 -430 -295 -76 -23 -97 -25 -219 -22 -137 4 -169 11 -300 61 -137 54 -290 184 -364 310 -39 67 -86 187 -86 219 0 10 -14 33 -31 53 -40 45 -87 48 -126 9 -24 -24 -25 -31 -21 -92 10 -129 113 -308 267 -463 96 -96 129 -120 251 -179 36 -17 72 -35 81 -40 8 -4 55 -18 105 -31 128 -34 340 -34 469 0 50 13 101 29 115 36 14 7 50 25 80 40 30 15 62 33 71 41 8 8 19 14 23 14 10 0 145 110 154 126 4 7 201 208 438 446 440 443 495 502 555 598 96 154 124 258 124 465 0 275 -61 424 -270 659 -138 154 -273 245 -445 298 -83 26 -114 30 -240 34 -99 2 -164 -1 -205 -10z M1940 3060 c-137 -25 -248 -71 -360 -150 -58 -40 -921 -899 -1071 -1065 -155 -171 -229 -364 -229 -597 0 -99 31 -277 54 -310 9 -12 16 -29 16 -37 0 -28 100 -188 157 -250 150 -166 320 -293 460 -342 173 -61 416 -65 573 -9 213 77 234 94 777 641 529 532 518 518 453 573 -41 34 -78 33 -121 -2 -19 -15 -223 -216 -455 -447 -231 -231 -438 -436 -460 -455 -143 -128 -339 -192 -534 -174 -123 11 -262 67 -371 150 -66 51 -186 172 -229 232 -84 118 -150 307 -150 432 0 135 78 349 163 449 89 105 1027 1036 1080 1073 80 54 156 87 256 109 103 23 173 24 282 3 236 -44 444 -196 551 -403 16 -31 33 -63 38 -71 5 -8 21 -48 35 -88 28 -76 44 -92 95 -92 72 0 98 47 73 132 -51 174 -112 280 -238 415 -142 153 -318 247 -530 284 -131 23 -189 22 -315 -1z"/></g></svg>