<svg aria-hidden="true" version="1.0" xmlns="http://www.w3.org/2000/svg"
 viewBox="102.0 100.5 279.0 279.0"
 preserveAspectRatio="xMidYMid meet">
<g transform="translate(0.000000,484.000000) scale(0.100000,-0.100000)"
fill="currentColor" stroke="none">
<path d="M1820 3704 c-216 -57 -370 -218 -416 -436 -19 -89 -14 -283 10 -373
43 -159 146 -319 357 -553 68 -76 132 -147 142 -159 19 -21 18 -21 -57 3 -41
13 -138 35 -216 49 -141 26 -210 44 -264 72 -48 25 -127 105 -152 155 -24 47
-25 48 -73 48 -72 0 -77 -10 -62 -133 32 -263 89 -474 178 -655 115 -236 271
-401 464 -491 119 -55 174 -66 324 -66 138 0 201 11 297 52 l57 25 63 -25 c99
-39 173 -51 313 -51 103 0 146 5 208 22 234 66 421 230 560 492 111 209 188
502 191 725 l1 100 -52 3 c-50 3 -54 1 -65 -25 -38 -88 -122 -164 -226 -203
-29 -11 -126 -33 -216 -50 -90 -17 -189 -39 -220 -50 l-57 -19 21 27 c12 15
73 83 135 152 190 210 243 282 305 412 55 115 71 184 77 318 8 186 -26 312
-120 435 -75 99 -178 165 -312 200 -76 19 -250 19 -334 0 -78 -19 -172 -68
-223 -116 l-38 -36 -42 39 c-53 49 -166 105 -237 118 -77 14 -257 11 -321 -6z
m270 -125 c60 -14 150 -63 190 -104 l32 -33 -65 5 c-88 7 -159 -11 -202 -52
l-35 -32 0 33 c0 45 -26 58 -98 50 -118 -14 -212 -84 -246 -183 -22 -63 -21
-231 0 -304 50 -169 173 -330 394 -519 68 -58 148 -126 178 -152 30 -27 63
-48 74 -48 25 0 23 -6 -16 -52 -19 -22 -50 -70 -70 -106 -20 -39 -36 -59 -36
-47 0 47 -125 210 -344 452 -322 354 -398 602 -264 856 45 85 115 149 211 197
115 56 181 65 297 39z m850 0 c218 -47 384 -256 382 -480 -1 -125 -76 -303
-190 -452 -24 -32 -88 -106 -141 -165 -223 -246 -295 -341 -358 -467 -40 -80
-58 -137 -88 -280 -26 -127 -74 -242 -118 -283 l-24 -23 -33 38 c-54 61 -92
155 -98 238 -5 88 9 157 54 252 54 114 136 207 336 379 295 256 389 358 463
505 56 110 68 166 63 298 -4 133 -19 172 -87 234 -52 47 -100 67 -178 74 -72
7 -93 -4 -93 -49 l0 -29 -37 30 c-61 47 -161 64 -242 41 l-34 -10 29 31 c63
67 151 112 249 128 54 9 62 8 145 -10z m-958 -353 c-3 -77 0 -102 16 -139 25
-56 87 -125 167 -185 83 -63 131 -108 176 -169 36 -48 43 -53 79 -53 36 0 43
5 79 53 45 61 89 103 186 179 147 115 178 172 173 313 -3 106 -5 104 67 84 57
-16 119 -83 134 -146 20 -81 -15 -189 -100 -315 -54 -79 -197 -227 -314 -326
-49 -42 -125 -107 -167 -144 -69 -62 -77 -67 -80 -46 -2 15 -49 61 -138 136
-302 252 -428 408 -475 587 -14 54 -14 65 1 115 24 84 98 145 179 149 19 1 20
-4 17 -93z m273 74 c18 -11 44 -38 59 -60 l26 -40 80 0 79 0 30 43 c16 24 45
52 65 62 36 20 37 20 73 0 20 -11 44 -35 54 -54 16 -31 17 -37 3 -70 -24 -57
-64 -101 -165 -179 -52 -40 -104 -84 -117 -98 -21 -24 -24 -25 -35 -10 -7 9
-61 56 -122 104 -113 90 -175 164 -175 209 0 36 26 80 58 97 36 20 49 20 87
-4z m-855 -1154 c30 -9 111 -26 180 -37 217 -35 340 -89 456 -196 39 -35 67
-53 84 -53 l25 0 -3 -95 c-6 -163 24 -277 102 -378 l36 -47 -27 -11 c-163 -62
-339 -44 -500 53 -79 47 -211 174 -270 260 -90 130 -170 313 -213 488 -6 25
-14 53 -16 63 -5 16 0 16 43 -6 26 -14 73 -32 103 -41z m2165 -37 c-68 -258
-170 -447 -324 -600 -95 -95 -189 -155 -296 -191 -88 -29 -240 -32 -325 -5
-87 27 -87 28 -50 82 45 66 76 147 95 251 10 54 29 112 48 149 62 116 196 222
338 266 33 11 124 30 202 44 146 26 236 52 297 85 19 10 36 17 37 16 2 -1 -9
-45 -22 -97z"/>
</g>
</svg>
